<?xml version="1.0" encoding="utf-8"?>
<!-- Generator: Adobe Illustrator 16.0.0, SVG Export Plug-In . SVG Version: 6.00 Build 0)  -->
<!DOCTYPE svg PUBLIC "-//W3C//DTD SVG 1.1//EN" "http://www.w3.org/Graphics/SVG/1.1/DTD/svg11.dtd">
<svg version="1.1" id="Capa_1" xmlns="http://www.w3.org/2000/svg" xmlns:xlink="http://www.w3.org/1999/xlink" x="0px" y="0px"
	 width="502.601px" height="131.406px" viewBox="0 0 502.601 131.406" enable-background="new 0 0 502.601 131.406"
	 xml:space="preserve">
<g>
	<g>
		<g>
			<path fill="#575756" d="M220.508,65.915h11.812v36.119c0,4.041,1.459,7.262,4.372,9.664c1.894,1.586,4.013,2.377,6.365,2.377
				h6.292c3.524,0,6.359-1.557,8.51-4.676c1.532-2.198,2.297-4.653,2.297-7.365V65.915h11.736v36.119
				c0,6.24-2.252,11.531-6.75,15.877c-4.448,4.193-9.716,6.288-15.793,6.288h-6.292c-6.341,0-11.736-2.248-16.181-6.749
				c-4.247-4.297-6.368-9.433-6.368-15.416V65.915z"/>
			<path fill="#575756" d="M293.517,100.426v13.648h35.582v10.124h-36.272c-3.733,0-6.723-1.404-8.975-4.219
				c-1.43-1.839-2.145-3.859-2.145-6.058V76.194c0-3.427,1.48-6.162,4.445-8.208c1.995-1.381,4.223-2.071,6.674-2.071h36.272V76.04
				h-35.582v14.263h27.685v10.124H293.517z"/>
			<path fill="#575756" d="M407.094,114.075h27.761l5.444,10.124h-33.896c-3.787,0-6.778-1.43-8.974-4.294
				c-1.38-1.79-2.071-3.784-2.071-5.982V65.915h11.736V114.075z"/>
			<path fill="#575756" d="M472.742,124.967h-7.823c-6.34,0-11.734-2.25-16.182-6.751c-4.245-4.294-6.367-9.431-6.367-15.413v-15.49
				c0-6.238,2.245-11.53,6.749-15.877c4.448-4.191,9.71-6.288,15.8-6.288h7.823c6.336,0,11.729,2.251,16.177,6.748
				c4.247,4.298,6.367,9.434,6.367,15.417v15.49c0,6.235-2.253,11.527-6.749,15.873
				C484.089,122.869,478.827,124.967,472.742,124.967z M464.919,114.843h7.823c3.525,0,6.361-1.586,8.511-4.753
				c1.482-2.199,2.221-4.628,2.221-7.287v-15.49c0-4.04-1.454-7.262-4.37-9.664c-1.889-1.584-4.014-2.377-6.361-2.377h-7.823
				c-3.53,0-6.365,1.56-8.517,4.678c-1.531,2.199-2.297,4.651-2.297,7.363v15.49c0,3.988,1.432,7.183,4.292,9.585
				C460.392,114.026,462.567,114.843,464.919,114.843z"/>
			<path fill="#575756" d="M207.242,72.281c-4.295-4.243-9.998-6.366-17.104-6.366h-15.87c-2.407,0-4.603,0.666-6.598,1.995
				c-2.967,2.044-4.447,4.808-4.447,8.284v48.005h11.736v-16.49h0.764h14.414h0.676l0.007-0.041
				c5.377-0.115,10.05-1.507,13.968-4.252c5.263-3.732,7.897-8.895,7.897-15.49V85.7C212.687,80.384,210.873,75.911,207.242,72.281z
				 M200.875,87.925c0,1.737-0.331,3.298-0.995,4.679c-1.688,3.323-4.933,4.985-9.742,4.985h-8.129h-7.049V76.04h15.178
				c1.638,0,3.149,0.228,4.527,0.688c4.141,1.382,6.209,4.371,6.209,8.972V87.925z"/>
			<path fill="#575756" d="M386.462,105.258c-0.871-4.758-3.784-8.438-8.742-11.045c0.154-0.101,0.332-0.255,0.536-0.461
				c3.528-3.116,5.291-7.002,5.291-11.656c0-3.374-1.023-6.416-3.068-9.127c-3.475-4.702-8.792-7.055-15.951-7.055h-15.875
				c-2.401,0-4.6,0.666-6.594,1.995c-2.966,2.044-4.448,4.808-4.448,8.284v48.005h26.916c6.544,0,11.862-1.534,15.951-4.603
				c4.142-3.066,6.213-7.004,6.213-11.81C386.692,106.97,386.615,106.127,386.462,105.258z M364.528,76.04
				c1.482,0,2.812,0.306,3.991,0.919c2.349,1.227,3.524,3.197,3.524,5.904c0,0.974-0.204,1.916-0.615,2.837
				c-1.174,2.66-3.475,3.989-6.9,3.989H356.4h-7.057V76.04H364.528z M374.346,110.011c-1.738,2.711-5.011,4.063-9.818,4.063h-15.184
				V99.887h0.765h14.419c2.557,0,4.756,0.461,6.596,1.382c2.709,1.382,4.065,3.298,4.065,5.753
				C375.188,108.043,374.906,109.039,374.346,110.011z"/>
		</g>
		<path fill="#575756" d="M172.913,35.379v11.197h29.191v8.307h-29.759c-3.064,0-5.515-1.153-7.359-3.462
			c-1.175-1.51-1.762-3.166-1.762-4.971V15.5c0-2.811,1.216-5.055,3.648-6.733c1.636-1.133,3.459-1.699,5.473-1.699h29.759v8.306
			h-29.191v11.701h22.71v8.306H172.913z"/>
		<path fill="#575756" d="M218.839,46.577h22.775l4.469,8.307h-27.811c-3.103,0-5.558-1.174-7.359-3.522
			c-1.133-1.47-1.699-3.105-1.699-4.91V7.067h9.625V46.577z"/>
		<path fill="#575756" d="M424.632,45.194l13.336-38.127h10.318l-14.03,40.013c-2.057,5.579-5.261,8.39-9.624,8.431
			c-4.364-0.041-7.551-2.852-9.562-8.431L400.976,7.067h10.316L424.632,45.194z"/>
		<path fill="#575756" d="M476.789,55.51h-6.417c-5.203,0-9.628-1.844-13.276-5.535c-3.479-3.524-5.22-7.738-5.22-12.646V24.621
			c0-5.116,1.845-9.457,5.534-13.022c3.646-3.44,7.968-5.16,12.962-5.16h6.417c5.2,0,9.627,1.847,13.276,5.537
			c3.478,3.524,5.224,7.737,5.224,12.646V37.33c0,5.118-1.847,9.457-5.538,13.022C486.104,53.793,481.781,55.51,476.789,55.51z
			 M470.372,47.207h6.417c2.896,0,5.224-1.3,6.982-3.899c1.22-1.804,1.827-3.795,1.827-5.978V24.621
			c0-3.313-1.194-5.953-3.586-7.927c-1.554-1.301-3.292-1.95-5.224-1.95h-6.417c-2.894,0-5.222,1.279-6.983,3.837
			c-1.259,1.804-1.889,3.817-1.889,6.04V37.33c0,3.27,1.174,5.893,3.525,7.864C466.662,46.537,468.444,47.207,470.372,47.207z"/>
		<path fill="#575756" d="M344.98,40.412c1.974-0.587,3.777-1.446,5.411-2.579c4.321-3.021,6.479-7.257,6.479-12.709V23.3
			c0-4.364-1.486-8.031-4.466-11.012c-3.521-3.48-8.201-5.222-14.027-5.222h-13.024c-1.972,0-3.775,0.546-5.411,1.636
			c-2.433,1.68-3.649,3.944-3.649,6.797v39.384h9.625V41.355h0.629h7.424l11.957,13.528h12.016L344.98,40.412z M336.249,33.051
			h-4.542h-5.79V15.373h12.46c1.338,0,2.579,0.189,3.71,0.567c3.396,1.13,5.1,3.585,5.1,7.36v1.823c0,1.427-0.277,2.706-0.821,3.839
			c-1.386,2.726-4.05,4.089-7.989,4.089H336.249z"/>
		<path fill="#575756" d="M309.119,39.342c-0.712-3.9-3.101-6.92-7.171-9.06c0.126-0.082,0.271-0.208,0.438-0.378
			c2.897-2.557,4.345-5.745,4.345-9.563c0-2.769-0.843-5.263-2.518-7.487c-2.852-3.859-7.216-5.788-13.086-5.788h-13.022
			c-1.974,0-3.778,0.546-5.412,1.636c-2.437,1.68-3.649,3.944-3.649,6.797v39.384h22.083c5.368,0,9.729-1.259,13.086-3.775
			c3.396-2.518,5.095-5.748,5.095-9.689C309.308,40.748,309.245,40.057,309.119,39.342z M291.127,15.373
			c1.216,0,2.307,0.251,3.27,0.757c1.931,1.004,2.895,2.619,2.895,4.84c0,0.799-0.169,1.575-0.501,2.331
			c-0.968,2.18-2.854,3.27-5.664,3.27h-6.668h-5.79V15.373H291.127z M299.181,43.244c-1.428,2.223-4.111,3.333-8.054,3.333h-12.458
			V34.94h0.629h11.829c2.096,0,3.901,0.376,5.413,1.131c2.22,1.133,3.333,2.705,3.333,4.718
			C299.874,41.629,299.641,42.448,299.181,43.244z"/>
		<path fill="#575756" d="M397.641,54.883h10.317L393.865,14.87c-2.011-5.578-5.201-8.39-9.561-8.432
			c-4.364,0.042-7.575,2.854-9.63,8.432l-14.025,40.014h10.317l2.213-6.325h22.205L397.641,54.883z M384.305,16.756l8.165,23.433
			h-16.364L384.305,16.756z"/>
	</g>
	<g>
		<path fill="#FFCB00" d="M49.567,54.589c25.213-11.28,52.943-9.487,75.633,2.447C121.003,28.416,96.354,6.441,66.575,6.441
			c-32.729,0-59.264,26.532-59.264,59.261c0,7.776,1.511,15.192,4.235,21.995C20.336,73.605,33.269,61.883,49.567,54.589z"/>
		<path fill="#FFFFFF" d="M49.567,54.589c13.981-6.254,28.738-8.477,42.981-7.199c-0.936-16.417-14.51-29.45-31.165-29.45
			c-17.264,0-31.254,13.993-31.254,31.255c0,5.273,1.317,10.234,3.625,14.591C38.597,60.243,43.87,57.141,49.567,54.589z"/>
		<path fill="#1D70B7" d="M45.549,121.112c3.328-20.192,16.397-38.39,36.478-47.374c14.28-6.39,29.666-7.022,43.576-2.919
			c0.147-1.686,0.234-3.393,0.234-5.117c0-2.943-0.221-5.835-0.637-8.665c-22.69-11.935-50.42-13.728-75.633-2.447
			c-16.298,7.294-29.231,19.016-38.021,33.107C17.688,103.051,30.063,115.233,45.549,121.112z"/>
		<path fill="#E20613" d="M82.027,73.738c-20.081,8.984-33.15,27.182-36.478,47.374c6.536,2.485,13.618,3.855,21.026,3.855
			c31.001,0,56.43-23.816,59.028-54.148C111.693,66.715,96.307,67.348,82.027,73.738z"/>
		<path fill="none" d="M125.837,65.702c0,32.73-26.533,59.262-59.262,59.262c-32.732,0-59.264-26.531-59.264-59.262
			c0-32.727,26.532-59.257,59.264-59.257C99.304,6.445,125.837,32.975,125.837,65.702z"/>
		<polygon fill="#FFFFFF" points="24.53,94.48 28.882,93.844 30.83,89.899 32.775,93.844 37.134,94.478 33.984,97.547 
			34.727,101.885 30.831,99.835 26.935,101.885 27.678,97.547 		"/>
		<polygon fill="#FFFFFF" points="35.763,80.144 39.958,79.533 41.831,75.733 43.71,79.533 47.905,80.141 44.873,83.101 
			45.588,87.279 41.835,85.303 38.084,87.279 38.799,83.101 		"/>
		<polygon fill="#FFFFFF" points="49.385,68.962 53.324,68.39 55.083,64.823 56.843,68.39 60.78,68.962 57.933,71.735 
			58.605,75.655 55.085,73.805 51.563,75.655 52.237,71.735 		"/>
		<polygon fill="#FFFFFF" points="64.963,61.549 68.534,61.029 70.131,57.792 71.73,61.029 75.304,61.547 72.72,64.067 
			73.329,67.625 70.134,65.945 66.937,67.625 67.547,64.067 		"/>
		<polygon fill="#FFFFFF" points="81.389,58.107 84.677,57.625 86.147,54.649 87.618,57.627 90.902,58.105 88.524,60.422 
			89.088,63.696 86.147,62.148 83.208,63.696 83.771,60.422 		"/>
		<polygon fill="#FFFFFF" points="96.748,57.4 99.768,56.958 101.116,54.221 102.468,56.96 105.487,57.398 103.304,59.525 
			103.82,62.534 101.12,61.113 98.42,62.534 98.936,59.525 		"/>
		<polygon fill="#FFFFFF" points="113.163,60.317 115.503,59.977 116.552,57.856 117.6,59.977 119.942,60.317 118.248,61.967 
			118.647,64.299 116.555,63.199 114.46,64.299 114.857,61.967 		"/>
	</g>
</g>
</svg>
